<svg xmlns="http://www.w3.org/2000/svg" viewBox="0 0 8.85 11.06"><defs><style>.cls-1{fill:#009080;}</style></defs><g id="Layer_2" data-name="Layer 2"><g id="Layer_1-2" data-name="Layer 1"><path class="cls-1" d="M7.56,9.9c0,.1,0,.19,0,.27a1,1,0,0,1-1,.89H1a1,1,0,0,1-1-.89C0,10.11,0,10,0,10V2.26A1,1,0,0,1,.84,1.19c.15,0,.3,0,.45,0s0-.16,0-.24a1,1,0,0,1,1-.92H5.78A.4.4,0,0,1,6,.11L8.75,2.85a.39.39,0,0,1,.1.25c0,1.92,0,3.84,0,5.75a1,1,0,0,1-1,1.05ZM5.61.41H2.4a.61.61,0,0,0-.68.69q0,3.84,0,7.68a.61.61,0,0,0,.69.69H7.74a.63.63,0,0,0,.71-.7V3.25H6.7a1,1,0,0,1-1.09-1.1ZM1.3,1.59a.69.69,0,0,0-.89.75c0,2.53,0,5.06,0,7.59a.63.63,0,0,0,.72.71H6.57a.61.61,0,0,0,.54-.76H2.37a1,1,0,0,1-.79-.32,1.08,1.08,0,0,1-.28-.79V1.59ZM6,.75V2.2a.6.6,0,0,0,.65.63H8.09Z"/><path class="cls-1" d="M5.3,5.74V7.25c0,.17-.07.26-.21.26s-.22-.09-.22-.27V5.76H3.31a.21.21,0,0,1-.22-.21.21.21,0,0,1,.22-.21H4.87V3.79c0-.16.08-.24.2-.25a.22.22,0,0,1,.22.25V5.33H6.85c.14,0,.22.09.22.2a.21.21,0,0,1-.23.21H5.3Z"/></g></g></svg>